<?xml version="1.0" encoding="utf-8" standalone="no"?>
<!DOCTYPE svg PUBLIC "-//W3C//DTD SVG 1.1//EN"
  "http://www.w3.org/Graphics/SVG/1.1/DTD/svg11.dtd">
<svg xmlns:xlink="http://www.w3.org/1999/xlink" width="576pt" height="432pt" viewBox="0 0 576 432" xmlns="http://www.w3.org/2000/svg" version="1.1">
 <metadata>
  <rdf:RDF xmlns:dc="http://purl.org/dc/elements/1.1/" xmlns:cc="http://creativecommons.org/ns#" xmlns:rdf="http://www.w3.org/1999/02/22-rdf-syntax-ns#">
   <cc:Work>
    <dc:type rdf:resource="http://purl.org/dc/dcmitype/StillImage"/>
    <dc:date>2024-05-29T18:54:05.499149</dc:date>
    <dc:format>image/svg+xml</dc:format>
    <dc:creator>
     <cc:Agent>
      <dc:title>Matplotlib v3.8.4, https://matplotlib.org/</dc:title>
     </cc:Agent>
    </dc:creator>
   </cc:Work>
  </rdf:RDF>
 </metadata>
 <defs>
  <style type="text/css">*{stroke-linejoin: round; stroke-linecap: butt}</style>
 </defs>
 <g id="figure_1">
  <g id="patch_1">
   <path d="M 0 432 
L 576 432 
L 576 0 
L 0 0 
z
" style="fill: #ffffff"/>
  </g>
  <g id="axes_1">
   <g id="patch_2">
    <path d="M 72 324 
L 518.4 324 
L 518.4 51.84 
L 72 51.84 
z
" style="fill: #ffffff"/>
   </g>
   <g id="matplotlib.axis_1">
    <g id="xtick_1">
     <g id="line2d_1">
      <path d="M 146.4 324 
L 146.4 51.84 
" clip-path="url(#pdca6f061ff)" style="fill: none; stroke-dasharray: 2.59,1.12; stroke-dashoffset: 0; stroke: #cccccc; stroke-width: 0.7"/>
     </g>
     <g id="text_1">
      <!-- Baseline -->
      <g style="fill: #262626" transform="translate(133.493092 368.902848) rotate(-45) scale(0.11 -0.11)">
       <defs>
        <path id="ArialMT-42" d="M 469 0 
L 469 4581 
L 2188 4581 
Q 2713 4581 3030 4442 
Q 3347 4303 3526 4014 
Q 3706 3725 3706 3409 
Q 3706 3116 3547 2856 
Q 3388 2597 3066 2438 
Q 3481 2316 3704 2022 
Q 3928 1728 3928 1328 
Q 3928 1006 3792 729 
Q 3656 453 3456 303 
Q 3256 153 2954 76 
Q 2653 0 2216 0 
L 469 0 
z
M 1075 2656 
L 2066 2656 
Q 2469 2656 2644 2709 
Q 2875 2778 2992 2937 
Q 3109 3097 3109 3338 
Q 3109 3566 3000 3739 
Q 2891 3913 2687 3977 
Q 2484 4041 1991 4041 
L 1075 4041 
L 1075 2656 
z
M 1075 541 
L 2216 541 
Q 2509 541 2628 563 
Q 2838 600 2978 687 
Q 3119 775 3209 942 
Q 3300 1109 3300 1328 
Q 3300 1584 3169 1773 
Q 3038 1963 2805 2039 
Q 2572 2116 2134 2116 
L 1075 2116 
L 1075 541 
z
" transform="scale(0.015625)"/>
        <path id="ArialMT-61" d="M 2588 409 
Q 2275 144 1986 34 
Q 1697 -75 1366 -75 
Q 819 -75 525 192 
Q 231 459 231 875 
Q 231 1119 342 1320 
Q 453 1522 633 1644 
Q 813 1766 1038 1828 
Q 1203 1872 1538 1913 
Q 2219 1994 2541 2106 
Q 2544 2222 2544 2253 
Q 2544 2597 2384 2738 
Q 2169 2928 1744 2928 
Q 1347 2928 1158 2789 
Q 969 2650 878 2297 
L 328 2372 
Q 403 2725 575 2942 
Q 747 3159 1072 3276 
Q 1397 3394 1825 3394 
Q 2250 3394 2515 3294 
Q 2781 3194 2906 3042 
Q 3031 2891 3081 2659 
Q 3109 2516 3109 2141 
L 3109 1391 
Q 3109 606 3145 398 
Q 3181 191 3288 0 
L 2700 0 
Q 2613 175 2588 409 
z
M 2541 1666 
Q 2234 1541 1622 1453 
Q 1275 1403 1131 1340 
Q 988 1278 909 1158 
Q 831 1038 831 891 
Q 831 666 1001 516 
Q 1172 366 1500 366 
Q 1825 366 2078 508 
Q 2331 650 2450 897 
Q 2541 1088 2541 1459 
L 2541 1666 
z
" transform="scale(0.015625)"/>
        <path id="ArialMT-73" d="M 197 991 
L 753 1078 
Q 800 744 1014 566 
Q 1228 388 1613 388 
Q 2000 388 2187 545 
Q 2375 703 2375 916 
Q 2375 1106 2209 1216 
Q 2094 1291 1634 1406 
Q 1016 1563 777 1677 
Q 538 1791 414 1992 
Q 291 2194 291 2438 
Q 291 2659 392 2848 
Q 494 3038 669 3163 
Q 800 3259 1026 3326 
Q 1253 3394 1513 3394 
Q 1903 3394 2198 3281 
Q 2494 3169 2634 2976 
Q 2775 2784 2828 2463 
L 2278 2388 
Q 2241 2644 2061 2787 
Q 1881 2931 1553 2931 
Q 1166 2931 1000 2803 
Q 834 2675 834 2503 
Q 834 2394 903 2306 
Q 972 2216 1119 2156 
Q 1203 2125 1616 2013 
Q 2213 1853 2448 1751 
Q 2684 1650 2818 1456 
Q 2953 1263 2953 975 
Q 2953 694 2789 445 
Q 2625 197 2315 61 
Q 2006 -75 1616 -75 
Q 969 -75 630 194 
Q 291 463 197 991 
z
" transform="scale(0.015625)"/>
        <path id="ArialMT-65" d="M 2694 1069 
L 3275 997 
Q 3138 488 2766 206 
Q 2394 -75 1816 -75 
Q 1088 -75 661 373 
Q 234 822 234 1631 
Q 234 2469 665 2931 
Q 1097 3394 1784 3394 
Q 2450 3394 2872 2941 
Q 3294 2488 3294 1666 
Q 3294 1616 3291 1516 
L 816 1516 
Q 847 969 1125 678 
Q 1403 388 1819 388 
Q 2128 388 2347 550 
Q 2566 713 2694 1069 
z
M 847 1978 
L 2700 1978 
Q 2663 2397 2488 2606 
Q 2219 2931 1791 2931 
Q 1403 2931 1139 2672 
Q 875 2413 847 1978 
z
" transform="scale(0.015625)"/>
        <path id="ArialMT-6c" d="M 409 0 
L 409 4581 
L 972 4581 
L 972 0 
L 409 0 
z
" transform="scale(0.015625)"/>
        <path id="ArialMT-69" d="M 425 3934 
L 425 4581 
L 988 4581 
L 988 3934 
L 425 3934 
z
M 425 0 
L 425 3319 
L 988 3319 
L 988 0 
L 425 0 
z
" transform="scale(0.015625)"/>
        <path id="ArialMT-6e" d="M 422 0 
L 422 3319 
L 928 3319 
L 928 2847 
Q 1294 3394 1984 3394 
Q 2284 3394 2536 3286 
Q 2788 3178 2913 3003 
Q 3038 2828 3088 2588 
Q 3119 2431 3119 2041 
L 3119 0 
L 2556 0 
L 2556 2019 
Q 2556 2363 2490 2533 
Q 2425 2703 2258 2804 
Q 2091 2906 1866 2906 
Q 1506 2906 1245 2678 
Q 984 2450 984 1813 
L 984 0 
L 422 0 
z
" transform="scale(0.015625)"/>
       </defs>
       <use xlink:href="#ArialMT-42"/>
       <use xlink:href="#ArialMT-61" x="66.699219"/>
       <use xlink:href="#ArialMT-73" x="122.314453"/>
       <use xlink:href="#ArialMT-65" x="172.314453"/>
       <use xlink:href="#ArialMT-6c" x="227.929688"/>
       <use xlink:href="#ArialMT-69" x="250.146484"/>
       <use xlink:href="#ArialMT-6e" x="272.363281"/>
       <use xlink:href="#ArialMT-65" x="327.978516"/>
      </g>
     </g>
    </g>
    <g id="xtick_2">
     <g id="line2d_2">
      <path d="M 295.2 324 
L 295.2 51.84 
" clip-path="url(#pdca6f061ff)" style="fill: none; stroke-dasharray: 2.59,1.12; stroke-dashoffset: 0; stroke: #cccccc; stroke-width: 0.7"/>
     </g>
     <g id="text_2">
      <!-- TrivialAugment -->
      <g style="fill: #262626" transform="translate(271.376302 390.645276) rotate(-45) scale(0.11 -0.11)">
       <defs>
        <path id="ArialMT-54" d="M 1659 0 
L 1659 4041 
L 150 4041 
L 150 4581 
L 3781 4581 
L 3781 4041 
L 2266 4041 
L 2266 0 
L 1659 0 
z
" transform="scale(0.015625)"/>
        <path id="ArialMT-72" d="M 416 0 
L 416 3319 
L 922 3319 
L 922 2816 
Q 1116 3169 1280 3281 
Q 1444 3394 1641 3394 
Q 1925 3394 2219 3213 
L 2025 2691 
Q 1819 2813 1613 2813 
Q 1428 2813 1281 2702 
Q 1134 2591 1072 2394 
Q 978 2094 978 1738 
L 978 0 
L 416 0 
z
" transform="scale(0.015625)"/>
        <path id="ArialMT-76" d="M 1344 0 
L 81 3319 
L 675 3319 
L 1388 1331 
Q 1503 1009 1600 663 
Q 1675 925 1809 1294 
L 2547 3319 
L 3125 3319 
L 1869 0 
L 1344 0 
z
" transform="scale(0.015625)"/>
        <path id="ArialMT-41" d="M -9 0 
L 1750 4581 
L 2403 4581 
L 4278 0 
L 3588 0 
L 3053 1388 
L 1138 1388 
L 634 0 
L -9 0 
z
M 1313 1881 
L 2866 1881 
L 2388 3150 
Q 2169 3728 2063 4100 
Q 1975 3659 1816 3225 
L 1313 1881 
z
" transform="scale(0.015625)"/>
        <path id="ArialMT-75" d="M 2597 0 
L 2597 488 
Q 2209 -75 1544 -75 
Q 1250 -75 995 37 
Q 741 150 617 320 
Q 494 491 444 738 
Q 409 903 409 1263 
L 409 3319 
L 972 3319 
L 972 1478 
Q 972 1038 1006 884 
Q 1059 663 1231 536 
Q 1403 409 1656 409 
Q 1909 409 2131 539 
Q 2353 669 2445 892 
Q 2538 1116 2538 1541 
L 2538 3319 
L 3100 3319 
L 3100 0 
L 2597 0 
z
" transform="scale(0.015625)"/>
        <path id="ArialMT-67" d="M 319 -275 
L 866 -356 
Q 900 -609 1056 -725 
Q 1266 -881 1628 -881 
Q 2019 -881 2231 -725 
Q 2444 -569 2519 -288 
Q 2563 -116 2559 434 
Q 2191 0 1641 0 
Q 956 0 581 494 
Q 206 988 206 1678 
Q 206 2153 378 2554 
Q 550 2956 876 3175 
Q 1203 3394 1644 3394 
Q 2231 3394 2613 2919 
L 2613 3319 
L 3131 3319 
L 3131 450 
Q 3131 -325 2973 -648 
Q 2816 -972 2473 -1159 
Q 2131 -1347 1631 -1347 
Q 1038 -1347 672 -1080 
Q 306 -813 319 -275 
z
M 784 1719 
Q 784 1066 1043 766 
Q 1303 466 1694 466 
Q 2081 466 2343 764 
Q 2606 1063 2606 1700 
Q 2606 2309 2336 2618 
Q 2066 2928 1684 2928 
Q 1309 2928 1046 2623 
Q 784 2319 784 1719 
z
" transform="scale(0.015625)"/>
        <path id="ArialMT-6d" d="M 422 0 
L 422 3319 
L 925 3319 
L 925 2853 
Q 1081 3097 1340 3245 
Q 1600 3394 1931 3394 
Q 2300 3394 2536 3241 
Q 2772 3088 2869 2813 
Q 3263 3394 3894 3394 
Q 4388 3394 4653 3120 
Q 4919 2847 4919 2278 
L 4919 0 
L 4359 0 
L 4359 2091 
Q 4359 2428 4304 2576 
Q 4250 2725 4106 2815 
Q 3963 2906 3769 2906 
Q 3419 2906 3187 2673 
Q 2956 2441 2956 1928 
L 2956 0 
L 2394 0 
L 2394 2156 
Q 2394 2531 2256 2718 
Q 2119 2906 1806 2906 
Q 1569 2906 1367 2781 
Q 1166 2656 1075 2415 
Q 984 2175 984 1722 
L 984 0 
L 422 0 
z
" transform="scale(0.015625)"/>
        <path id="ArialMT-74" d="M 1650 503 
L 1731 6 
Q 1494 -44 1306 -44 
Q 1000 -44 831 53 
Q 663 150 594 308 
Q 525 466 525 972 
L 525 2881 
L 113 2881 
L 113 3319 
L 525 3319 
L 525 4141 
L 1084 4478 
L 1084 3319 
L 1650 3319 
L 1650 2881 
L 1084 2881 
L 1084 941 
Q 1084 700 1114 631 
Q 1144 563 1211 522 
Q 1278 481 1403 481 
Q 1497 481 1650 503 
z
" transform="scale(0.015625)"/>
       </defs>
       <use xlink:href="#ArialMT-54"/>
       <use xlink:href="#ArialMT-72" x="57.333984"/>
       <use xlink:href="#ArialMT-69" x="90.634766"/>
       <use xlink:href="#ArialMT-76" x="112.851562"/>
       <use xlink:href="#ArialMT-69" x="162.851562"/>
       <use xlink:href="#ArialMT-61" x="185.068359"/>
       <use xlink:href="#ArialMT-6c" x="240.683594"/>
       <use xlink:href="#ArialMT-41" x="262.900391"/>
       <use xlink:href="#ArialMT-75" x="329.599609"/>
       <use xlink:href="#ArialMT-67" x="385.214844"/>
       <use xlink:href="#ArialMT-6d" x="440.830078"/>
       <use xlink:href="#ArialMT-65" x="524.130859"/>
       <use xlink:href="#ArialMT-6e" x="579.746094"/>
       <use xlink:href="#ArialMT-74" x="635.361328"/>
      </g>
     </g>
    </g>
    <g id="xtick_3">
     <g id="line2d_3">
      <path d="M 444 324 
L 444 51.84 
" clip-path="url(#pdca6f061ff)" style="fill: none; stroke-dasharray: 2.59,1.12; stroke-dashoffset: 0; stroke: #cccccc; stroke-width: 0.7"/>
     </g>
     <g id="text_3">
      <!-- FastAA -->
      <g style="fill: #262626" transform="translate(433.259435 364.570161) rotate(-45) scale(0.11 -0.11)">
       <defs>
        <path id="ArialMT-46" d="M 525 0 
L 525 4581 
L 3616 4581 
L 3616 4041 
L 1131 4041 
L 1131 2622 
L 3281 2622 
L 3281 2081 
L 1131 2081 
L 1131 0 
L 525 0 
z
" transform="scale(0.015625)"/>
       </defs>
       <use xlink:href="#ArialMT-46"/>
       <use xlink:href="#ArialMT-61" x="61.083984"/>
       <use xlink:href="#ArialMT-73" x="116.699219"/>
       <use xlink:href="#ArialMT-74" x="166.699219"/>
       <use xlink:href="#ArialMT-41" x="194.482422"/>
       <use xlink:href="#ArialMT-41" x="261.181641"/>
      </g>
     </g>
    </g>
   </g>
   <g id="matplotlib.axis_2">
    <g id="ytick_1">
     <g id="line2d_4">
      <path d="M 72 289.408784 
L 518.4 289.408784 
" clip-path="url(#pdca6f061ff)" style="fill: none; stroke-dasharray: 2.59,1.12; stroke-dashoffset: 0; stroke: #cccccc; stroke-width: 0.7"/>
     </g>
     <g id="text_4">
      <!-- 0.300 -->
      <g style="fill: #262626" transform="translate(34.975938 293.345581) scale(0.11 -0.11)">
       <defs>
        <path id="ArialMT-30" d="M 266 2259 
Q 266 3072 433 3567 
Q 600 4063 929 4331 
Q 1259 4600 1759 4600 
Q 2128 4600 2406 4451 
Q 2684 4303 2865 4023 
Q 3047 3744 3150 3342 
Q 3253 2941 3253 2259 
Q 3253 1453 3087 958 
Q 2922 463 2592 192 
Q 2263 -78 1759 -78 
Q 1097 -78 719 397 
Q 266 969 266 2259 
z
M 844 2259 
Q 844 1131 1108 757 
Q 1372 384 1759 384 
Q 2147 384 2411 759 
Q 2675 1134 2675 2259 
Q 2675 3391 2411 3762 
Q 2147 4134 1753 4134 
Q 1366 4134 1134 3806 
Q 844 3388 844 2259 
z
" transform="scale(0.015625)"/>
        <path id="ArialMT-2e" d="M 581 0 
L 581 641 
L 1222 641 
L 1222 0 
L 581 0 
z
" transform="scale(0.015625)"/>
        <path id="ArialMT-33" d="M 269 1209 
L 831 1284 
Q 928 806 1161 595 
Q 1394 384 1728 384 
Q 2125 384 2398 659 
Q 2672 934 2672 1341 
Q 2672 1728 2419 1979 
Q 2166 2231 1775 2231 
Q 1616 2231 1378 2169 
L 1441 2663 
Q 1497 2656 1531 2656 
Q 1891 2656 2178 2843 
Q 2466 3031 2466 3422 
Q 2466 3731 2256 3934 
Q 2047 4138 1716 4138 
Q 1388 4138 1169 3931 
Q 950 3725 888 3313 
L 325 3413 
Q 428 3978 793 4289 
Q 1159 4600 1703 4600 
Q 2078 4600 2393 4439 
Q 2709 4278 2876 4000 
Q 3044 3722 3044 3409 
Q 3044 3113 2884 2869 
Q 2725 2625 2413 2481 
Q 2819 2388 3044 2092 
Q 3269 1797 3269 1353 
Q 3269 753 2831 336 
Q 2394 -81 1725 -81 
Q 1122 -81 723 278 
Q 325 638 269 1209 
z
" transform="scale(0.015625)"/>
       </defs>
       <use xlink:href="#ArialMT-30"/>
       <use xlink:href="#ArialMT-2e" x="55.615234"/>
       <use xlink:href="#ArialMT-33" x="83.398438"/>
       <use xlink:href="#ArialMT-30" x="139.013672"/>
       <use xlink:href="#ArialMT-30" x="194.628906"/>
      </g>
     </g>
    </g>
    <g id="ytick_2">
     <g id="line2d_5">
      <path d="M 72 253.225967 
L 518.4 253.225967 
" clip-path="url(#pdca6f061ff)" style="fill: none; stroke-dasharray: 2.59,1.12; stroke-dashoffset: 0; stroke: #cccccc; stroke-width: 0.7"/>
     </g>
     <g id="text_5">
      <!-- 0.325 -->
      <g style="fill: #262626" transform="translate(34.975938 257.162764) scale(0.11 -0.11)">
       <defs>
        <path id="ArialMT-32" d="M 3222 541 
L 3222 0 
L 194 0 
Q 188 203 259 391 
Q 375 700 629 1000 
Q 884 1300 1366 1694 
Q 2113 2306 2375 2664 
Q 2638 3022 2638 3341 
Q 2638 3675 2398 3904 
Q 2159 4134 1775 4134 
Q 1369 4134 1125 3890 
Q 881 3647 878 3216 
L 300 3275 
Q 359 3922 746 4261 
Q 1134 4600 1788 4600 
Q 2447 4600 2831 4234 
Q 3216 3869 3216 3328 
Q 3216 3053 3103 2787 
Q 2991 2522 2730 2228 
Q 2469 1934 1863 1422 
Q 1356 997 1212 845 
Q 1069 694 975 541 
L 3222 541 
z
" transform="scale(0.015625)"/>
        <path id="ArialMT-35" d="M 266 1200 
L 856 1250 
Q 922 819 1161 601 
Q 1400 384 1738 384 
Q 2144 384 2425 690 
Q 2706 997 2706 1503 
Q 2706 1984 2436 2262 
Q 2166 2541 1728 2541 
Q 1456 2541 1237 2417 
Q 1019 2294 894 2097 
L 366 2166 
L 809 4519 
L 3088 4519 
L 3088 3981 
L 1259 3981 
L 1013 2750 
Q 1425 3038 1878 3038 
Q 2478 3038 2890 2622 
Q 3303 2206 3303 1553 
Q 3303 931 2941 478 
Q 2500 -78 1738 -78 
Q 1113 -78 717 272 
Q 322 622 266 1200 
z
" transform="scale(0.015625)"/>
       </defs>
       <use xlink:href="#ArialMT-30"/>
       <use xlink:href="#ArialMT-2e" x="55.615234"/>
       <use xlink:href="#ArialMT-33" x="83.398438"/>
       <use xlink:href="#ArialMT-32" x="139.013672"/>
       <use xlink:href="#ArialMT-35" x="194.628906"/>
      </g>
     </g>
    </g>
    <g id="ytick_3">
     <g id="line2d_6">
      <path d="M 72 217.04315 
L 518.4 217.04315 
" clip-path="url(#pdca6f061ff)" style="fill: none; stroke-dasharray: 2.59,1.12; stroke-dashoffset: 0; stroke: #cccccc; stroke-width: 0.7"/>
     </g>
     <g id="text_6">
      <!-- 0.350 -->
      <g style="fill: #262626" transform="translate(34.975938 220.979947) scale(0.11 -0.11)">
       <use xlink:href="#ArialMT-30"/>
       <use xlink:href="#ArialMT-2e" x="55.615234"/>
       <use xlink:href="#ArialMT-33" x="83.398438"/>
       <use xlink:href="#ArialMT-35" x="139.013672"/>
       <use xlink:href="#ArialMT-30" x="194.628906"/>
      </g>
     </g>
    </g>
    <g id="ytick_4">
     <g id="line2d_7">
      <path d="M 72 180.860333 
L 518.4 180.860333 
" clip-path="url(#pdca6f061ff)" style="fill: none; stroke-dasharray: 2.59,1.12; stroke-dashoffset: 0; stroke: #cccccc; stroke-width: 0.7"/>
     </g>
     <g id="text_7">
      <!-- 0.375 -->
      <g style="fill: #262626" transform="translate(34.975938 184.79713) scale(0.11 -0.11)">
       <defs>
        <path id="ArialMT-37" d="M 303 3981 
L 303 4522 
L 3269 4522 
L 3269 4084 
Q 2831 3619 2401 2847 
Q 1972 2075 1738 1259 
Q 1569 684 1522 0 
L 944 0 
Q 953 541 1156 1306 
Q 1359 2072 1739 2783 
Q 2119 3494 2547 3981 
L 303 3981 
z
" transform="scale(0.015625)"/>
       </defs>
       <use xlink:href="#ArialMT-30"/>
       <use xlink:href="#ArialMT-2e" x="55.615234"/>
       <use xlink:href="#ArialMT-33" x="83.398438"/>
       <use xlink:href="#ArialMT-37" x="139.013672"/>
       <use xlink:href="#ArialMT-35" x="194.628906"/>
      </g>
     </g>
    </g>
    <g id="ytick_5">
     <g id="line2d_8">
      <path d="M 72 144.677516 
L 518.4 144.677516 
" clip-path="url(#pdca6f061ff)" style="fill: none; stroke-dasharray: 2.59,1.12; stroke-dashoffset: 0; stroke: #cccccc; stroke-width: 0.7"/>
     </g>
     <g id="text_8">
      <!-- 0.400 -->
      <g style="fill: #262626" transform="translate(34.975938 148.614313) scale(0.11 -0.11)">
       <defs>
        <path id="ArialMT-34" d="M 2069 0 
L 2069 1097 
L 81 1097 
L 81 1613 
L 2172 4581 
L 2631 4581 
L 2631 1613 
L 3250 1613 
L 3250 1097 
L 2631 1097 
L 2631 0 
L 2069 0 
z
M 2069 1613 
L 2069 3678 
L 634 1613 
L 2069 1613 
z
" transform="scale(0.015625)"/>
       </defs>
       <use xlink:href="#ArialMT-30"/>
       <use xlink:href="#ArialMT-2e" x="55.615234"/>
       <use xlink:href="#ArialMT-34" x="83.398438"/>
       <use xlink:href="#ArialMT-30" x="139.013672"/>
       <use xlink:href="#ArialMT-30" x="194.628906"/>
      </g>
     </g>
    </g>
    <g id="ytick_6">
     <g id="line2d_9">
      <path d="M 72 108.494699 
L 518.4 108.494699 
" clip-path="url(#pdca6f061ff)" style="fill: none; stroke-dasharray: 2.59,1.12; stroke-dashoffset: 0; stroke: #cccccc; stroke-width: 0.7"/>
     </g>
     <g id="text_9">
      <!-- 0.425 -->
      <g style="fill: #262626" transform="translate(34.975938 112.431496) scale(0.11 -0.11)">
       <use xlink:href="#ArialMT-30"/>
       <use xlink:href="#ArialMT-2e" x="55.615234"/>
       <use xlink:href="#ArialMT-34" x="83.398438"/>
       <use xlink:href="#ArialMT-32" x="139.013672"/>
       <use xlink:href="#ArialMT-35" x="194.628906"/>
      </g>
     </g>
    </g>
    <g id="ytick_7">
     <g id="line2d_10">
      <path d="M 72 72.311882 
L 518.4 72.311882 
" clip-path="url(#pdca6f061ff)" style="fill: none; stroke-dasharray: 2.59,1.12; stroke-dashoffset: 0; stroke: #cccccc; stroke-width: 0.7"/>
     </g>
     <g id="text_10">
      <!-- 0.450 -->
      <g style="fill: #262626" transform="translate(34.975938 76.248679) scale(0.11 -0.11)">
       <use xlink:href="#ArialMT-30"/>
       <use xlink:href="#ArialMT-2e" x="55.615234"/>
       <use xlink:href="#ArialMT-34" x="83.398438"/>
       <use xlink:href="#ArialMT-35" x="139.013672"/>
       <use xlink:href="#ArialMT-30" x="194.628906"/>
      </g>
     </g>
    </g>
    <g id="text_11">
     <!-- mAP@0.5-0.95 -->
     <g style="fill: #262626" transform="translate(28.450312 229.0275) rotate(-90) scale(0.12 -0.12)">
      <defs>
       <path id="ArialMT-50" d="M 494 0 
L 494 4581 
L 2222 4581 
Q 2678 4581 2919 4538 
Q 3256 4481 3484 4323 
Q 3713 4166 3852 3881 
Q 3991 3597 3991 3256 
Q 3991 2672 3619 2267 
Q 3247 1863 2275 1863 
L 1100 1863 
L 1100 0 
L 494 0 
z
M 1100 2403 
L 2284 2403 
Q 2872 2403 3119 2622 
Q 3366 2841 3366 3238 
Q 3366 3525 3220 3729 
Q 3075 3934 2838 4000 
Q 2684 4041 2272 4041 
L 1100 4041 
L 1100 2403 
z
" transform="scale(0.015625)"/>
       <path id="ArialMT-40" d="M 3628 509 
Q 3425 275 3173 133 
Q 2922 -9 2669 -9 
Q 2391 -9 2128 153 
Q 1866 316 1702 653 
Q 1538 991 1538 1394 
Q 1538 1891 1792 2389 
Q 2047 2888 2425 3138 
Q 2803 3388 3159 3388 
Q 3431 3388 3678 3245 
Q 3925 3103 4103 2813 
L 4209 3297 
L 4769 3297 
L 4319 1200 
Q 4225 763 4225 716 
Q 4225 631 4289 570 
Q 4353 509 4444 509 
Q 4609 509 4878 700 
Q 5234 950 5442 1370 
Q 5650 1791 5650 2238 
Q 5650 2759 5383 3212 
Q 5116 3666 4586 3937 
Q 4056 4209 3416 4209 
Q 2684 4209 2079 3867 
Q 1475 3525 1142 2886 
Q 809 2247 809 1516 
Q 809 750 1142 197 
Q 1475 -356 2104 -620 
Q 2734 -884 3500 -884 
Q 4319 -884 4872 -609 
Q 5425 -334 5700 59 
L 6266 59 
Q 6106 -269 5718 -609 
Q 5331 -950 4797 -1148 
Q 4263 -1347 3509 -1347 
Q 2816 -1347 2230 -1169 
Q 1644 -991 1231 -633 
Q 819 -275 609 191 
Q 347 781 347 1466 
Q 347 2228 659 2919 
Q 1041 3766 1742 4216 
Q 2444 4666 3444 4666 
Q 4219 4666 4836 4348 
Q 5453 4031 5809 3403 
Q 6113 2863 6113 2228 
Q 6113 1322 5475 619 
Q 4906 -13 4231 -13 
Q 4016 -13 3883 53 
Q 3750 119 3688 241 
Q 3647 319 3628 509 
z
M 2116 1356 
Q 2116 928 2319 690 
Q 2522 453 2784 453 
Q 2959 453 3153 558 
Q 3347 663 3523 869 
Q 3700 1075 3812 1392 
Q 3925 1709 3925 2028 
Q 3925 2453 3714 2687 
Q 3503 2922 3200 2922 
Q 3000 2922 2823 2820 
Q 2647 2719 2481 2494 
Q 2316 2269 2216 1947 
Q 2116 1625 2116 1356 
z
" transform="scale(0.015625)"/>
       <path id="ArialMT-2d" d="M 203 1375 
L 203 1941 
L 1931 1941 
L 1931 1375 
L 203 1375 
z
" transform="scale(0.015625)"/>
       <path id="ArialMT-39" d="M 350 1059 
L 891 1109 
Q 959 728 1153 556 
Q 1347 384 1650 384 
Q 1909 384 2104 503 
Q 2300 622 2425 820 
Q 2550 1019 2634 1356 
Q 2719 1694 2719 2044 
Q 2719 2081 2716 2156 
Q 2547 1888 2255 1720 
Q 1963 1553 1622 1553 
Q 1053 1553 659 1965 
Q 266 2378 266 3053 
Q 266 3750 677 4175 
Q 1088 4600 1706 4600 
Q 2153 4600 2523 4359 
Q 2894 4119 3086 3673 
Q 3278 3228 3278 2384 
Q 3278 1506 3087 986 
Q 2897 466 2520 194 
Q 2144 -78 1638 -78 
Q 1100 -78 759 220 
Q 419 519 350 1059 
z
M 2653 3081 
Q 2653 3566 2395 3850 
Q 2138 4134 1775 4134 
Q 1400 4134 1122 3828 
Q 844 3522 844 3034 
Q 844 2597 1108 2323 
Q 1372 2050 1759 2050 
Q 2150 2050 2401 2323 
Q 2653 2597 2653 3081 
z
" transform="scale(0.015625)"/>
      </defs>
      <use xlink:href="#ArialMT-6d"/>
      <use xlink:href="#ArialMT-41" x="83.300781"/>
      <use xlink:href="#ArialMT-50" x="150"/>
      <use xlink:href="#ArialMT-40" x="216.699219"/>
      <use xlink:href="#ArialMT-30" x="318.212891"/>
      <use xlink:href="#ArialMT-2e" x="373.828125"/>
      <use xlink:href="#ArialMT-35" x="401.611328"/>
      <use xlink:href="#ArialMT-2d" x="457.226562"/>
      <use xlink:href="#ArialMT-30" x="490.527344"/>
      <use xlink:href="#ArialMT-2e" x="546.142578"/>
      <use xlink:href="#ArialMT-39" x="573.925781"/>
      <use xlink:href="#ArialMT-35" x="629.541016"/>
     </g>
    </g>
   </g>
   <g id="patch_3">
    <path d="M 146.4 723.602587 
L 146.4 723.602587 
L 146.4 723.602587 
L 146.4 723.602587 
z
" clip-path="url(#pdca6f061ff)" style="fill: #aabac4; stroke: #363636; stroke-linejoin: miter"/>
   </g>
   <g id="patch_4">
    <path d="M 146.4 723.602587 
L 146.4 723.602587 
L 146.4 723.602587 
L 146.4 723.602587 
z
" clip-path="url(#pdca6f061ff)" style="fill: #288b74; stroke: #363636; stroke-linejoin: miter"/>
   </g>
   <g id="patch_5">
    <path d="M 124.08 138.990859 
L 146.4 138.990859 
L 146.4 91.168518 
L 124.08 91.168518 
L 124.08 138.990859 
z
" clip-path="url(#pdca6f061ff)" style="fill: #aabac4; stroke: #363636; stroke-linejoin: miter"/>
   </g>
   <g id="line2d_11">
    <path d="M 135.24 138.990859 
L 135.24 174.07935 
" clip-path="url(#pdca6f061ff)" style="fill: none; stroke: #363636"/>
   </g>
   <g id="line2d_12">
    <path d="M 135.24 91.168518 
L 135.24 80.236777 
" clip-path="url(#pdca6f061ff)" style="fill: none; stroke: #363636"/>
   </g>
   <g id="line2d_13">
    <path d="M 129.66 174.07935 
L 140.82 174.07935 
" clip-path="url(#pdca6f061ff)" style="fill: none; stroke: #363636; stroke-linecap: round"/>
   </g>
   <g id="line2d_14">
    <path d="M 129.66 80.236777 
L 140.82 80.236777 
" clip-path="url(#pdca6f061ff)" style="fill: none; stroke: #363636; stroke-linecap: round"/>
   </g>
   <g id="line2d_15"/>
   <g id="patch_6">
    <path d="M 272.88 133.383705 
L 295.2 133.383705 
L 295.2 97.330431 
L 272.88 97.330431 
L 272.88 133.383705 
z
" clip-path="url(#pdca6f061ff)" style="fill: #aabac4; stroke: #363636; stroke-linejoin: miter"/>
   </g>
   <g id="line2d_16">
    <path d="M 284.04 133.383705 
L 284.04 147.205722 
" clip-path="url(#pdca6f061ff)" style="fill: none; stroke: #363636"/>
   </g>
   <g id="line2d_17">
    <path d="M 284.04 97.330431 
L 284.04 95.254491 
" clip-path="url(#pdca6f061ff)" style="fill: none; stroke: #363636"/>
   </g>
   <g id="line2d_18">
    <path d="M 278.46 147.205722 
L 289.62 147.205722 
" clip-path="url(#pdca6f061ff)" style="fill: none; stroke: #363636; stroke-linecap: round"/>
   </g>
   <g id="line2d_19">
    <path d="M 278.46 95.254491 
L 289.62 95.254491 
" clip-path="url(#pdca6f061ff)" style="fill: none; stroke: #363636; stroke-linecap: round"/>
   </g>
   <g id="line2d_20"/>
   <g id="patch_7">
    <path d="M 421.68 170.527411 
L 444 170.527411 
L 444 102.370846 
L 421.68 102.370846 
L 421.68 170.527411 
z
" clip-path="url(#pdca6f061ff)" style="fill: #aabac4; stroke: #363636; stroke-linejoin: miter"/>
   </g>
   <g id="line2d_21">
    <path d="M 432.84 170.527411 
L 432.84 217.387966 
" clip-path="url(#pdca6f061ff)" style="fill: none; stroke: #363636"/>
   </g>
   <g id="line2d_22">
    <path d="M 432.84 102.370846 
L 432.84 64.210909 
" clip-path="url(#pdca6f061ff)" style="fill: none; stroke: #363636"/>
   </g>
   <g id="line2d_23">
    <path d="M 427.26 217.387966 
L 438.42 217.387966 
" clip-path="url(#pdca6f061ff)" style="fill: none; stroke: #363636; stroke-linecap: round"/>
   </g>
   <g id="line2d_24">
    <path d="M 427.26 64.210909 
L 438.42 64.210909 
" clip-path="url(#pdca6f061ff)" style="fill: none; stroke: #363636; stroke-linecap: round"/>
   </g>
   <g id="line2d_25"/>
   <g id="patch_8">
    <path d="M 295.2 250.14822 
L 317.52 250.14822 
L 317.52 133.172773 
L 295.2 133.172773 
L 295.2 250.14822 
z
" clip-path="url(#pdca6f061ff)" style="fill: #288b74; stroke: #363636; stroke-linejoin: miter"/>
   </g>
   <g id="line2d_26">
    <path d="M 306.36 250.14822 
L 306.36 311.629091 
" clip-path="url(#pdca6f061ff)" style="fill: none; stroke: #363636"/>
   </g>
   <g id="line2d_27">
    <path d="M 306.36 133.172773 
L 306.36 118.336445 
" clip-path="url(#pdca6f061ff)" style="fill: none; stroke: #363636"/>
   </g>
   <g id="line2d_28">
    <path d="M 300.78 311.629091 
L 311.94 311.629091 
" clip-path="url(#pdca6f061ff)" style="fill: none; stroke: #363636; stroke-linecap: round"/>
   </g>
   <g id="line2d_29">
    <path d="M 300.78 118.336445 
L 311.94 118.336445 
" clip-path="url(#pdca6f061ff)" style="fill: none; stroke: #363636; stroke-linecap: round"/>
   </g>
   <g id="line2d_30"/>
   <g id="patch_9">
    <path d="M 444 200.468301 
L 466.32 200.468301 
L 466.32 112.538783 
L 444 112.538783 
L 444 200.468301 
z
" clip-path="url(#pdca6f061ff)" style="fill: #288b74; stroke: #363636; stroke-linejoin: miter"/>
   </g>
   <g id="line2d_31">
    <path d="M 455.16 200.468301 
L 455.16 250.037615 
" clip-path="url(#pdca6f061ff)" style="fill: none; stroke: #363636"/>
   </g>
   <g id="line2d_32">
    <path d="M 455.16 112.538783 
L 455.16 74.855512 
" clip-path="url(#pdca6f061ff)" style="fill: none; stroke: #363636"/>
   </g>
   <g id="line2d_33">
    <path d="M 449.58 250.037615 
L 460.74 250.037615 
" clip-path="url(#pdca6f061ff)" style="fill: none; stroke: #363636; stroke-linecap: round"/>
   </g>
   <g id="line2d_34">
    <path d="M 449.58 74.855512 
L 460.74 74.855512 
" clip-path="url(#pdca6f061ff)" style="fill: none; stroke: #363636; stroke-linecap: round"/>
   </g>
   <g id="line2d_35"/>
   <g id="line2d_36">
    <path d="M 124.08 97.015472 
L 146.4 97.015472 
" clip-path="url(#pdca6f061ff)" style="fill: none; stroke: #363636"/>
   </g>
   <g id="line2d_37">
    <path d="M 272.88 104.133821 
L 295.2 104.133821 
" clip-path="url(#pdca6f061ff)" style="fill: none; stroke: #363636"/>
   </g>
   <g id="line2d_38">
    <path d="M 421.68 113.72746 
L 444 113.72746 
" clip-path="url(#pdca6f061ff)" style="fill: none; stroke: #363636"/>
   </g>
   <g id="line2d_39">
    <path d="M 295.2 143.92604 
L 317.52 143.92604 
" clip-path="url(#pdca6f061ff)" style="fill: none; stroke: #363636"/>
   </g>
   <g id="line2d_40">
    <path d="M 444 154.963501 
L 466.32 154.963501 
" clip-path="url(#pdca6f061ff)" style="fill: none; stroke: #363636"/>
   </g>
   <g id="patch_10">
    <path d="M 72 324 
L 72 51.84 
" style="fill: none; stroke: #cccccc; stroke-width: 1.25; stroke-linejoin: miter; stroke-linecap: square"/>
   </g>
   <g id="patch_11">
    <path d="M 72 324 
L 518.4 324 
" style="fill: none; stroke: #cccccc; stroke-width: 1.25; stroke-linejoin: miter; stroke-linecap: square"/>
   </g>
   <g id="legend_1">
    <g id="patch_12">
     <path d="M 79.7 318.5 
L 260.129219 318.5 
Q 262.329219 318.5 262.329219 316.3 
L 262.329219 285.888438 
Q 262.329219 283.688437 260.129219 283.688437 
L 79.7 283.688437 
Q 77.5 283.688437 77.5 285.888438 
L 77.5 316.3 
Q 77.5 318.5 79.7 318.5 
z
" style="fill: #ffffff; opacity: 0.8; stroke: #cccccc; stroke-linejoin: miter"/>
    </g>
    <g id="patch_13">
     <path d="M 81.9 295.962031 
L 103.9 295.962031 
L 103.9 288.262031 
L 81.9 288.262031 
z
" style="fill: #aabac4; stroke: #363636; stroke-linejoin: miter"/>
    </g>
    <g id="text_12">
     <!-- original + augmented data set -->
     <g style="fill: #262626" transform="translate(112.7 295.962031) scale(0.11 -0.11)">
      <defs>
       <path id="ArialMT-6f" d="M 213 1659 
Q 213 2581 725 3025 
Q 1153 3394 1769 3394 
Q 2453 3394 2887 2945 
Q 3322 2497 3322 1706 
Q 3322 1066 3130 698 
Q 2938 331 2570 128 
Q 2203 -75 1769 -75 
Q 1072 -75 642 372 
Q 213 819 213 1659 
z
M 791 1659 
Q 791 1022 1069 705 
Q 1347 388 1769 388 
Q 2188 388 2466 706 
Q 2744 1025 2744 1678 
Q 2744 2294 2464 2611 
Q 2184 2928 1769 2928 
Q 1347 2928 1069 2612 
Q 791 2297 791 1659 
z
" transform="scale(0.015625)"/>
       <path id="ArialMT-20" transform="scale(0.015625)"/>
       <path id="ArialMT-2b" d="M 1603 741 
L 1603 1997 
L 356 1997 
L 356 2522 
L 1603 2522 
L 1603 3769 
L 2134 3769 
L 2134 2522 
L 3381 2522 
L 3381 1997 
L 2134 1997 
L 2134 741 
L 1603 741 
z
" transform="scale(0.015625)"/>
       <path id="ArialMT-64" d="M 2575 0 
L 2575 419 
Q 2259 -75 1647 -75 
Q 1250 -75 917 144 
Q 584 363 401 755 
Q 219 1147 219 1656 
Q 219 2153 384 2558 
Q 550 2963 881 3178 
Q 1213 3394 1622 3394 
Q 1922 3394 2156 3267 
Q 2391 3141 2538 2938 
L 2538 4581 
L 3097 4581 
L 3097 0 
L 2575 0 
z
M 797 1656 
Q 797 1019 1065 703 
Q 1334 388 1700 388 
Q 2069 388 2326 689 
Q 2584 991 2584 1609 
Q 2584 2291 2321 2609 
Q 2059 2928 1675 2928 
Q 1300 2928 1048 2622 
Q 797 2316 797 1656 
z
" transform="scale(0.015625)"/>
      </defs>
      <use xlink:href="#ArialMT-6f"/>
      <use xlink:href="#ArialMT-72" x="55.615234"/>
      <use xlink:href="#ArialMT-69" x="88.916016"/>
      <use xlink:href="#ArialMT-67" x="111.132812"/>
      <use xlink:href="#ArialMT-69" x="166.748047"/>
      <use xlink:href="#ArialMT-6e" x="188.964844"/>
      <use xlink:href="#ArialMT-61" x="244.580078"/>
      <use xlink:href="#ArialMT-6c" x="300.195312"/>
      <use xlink:href="#ArialMT-20" x="322.412109"/>
      <use xlink:href="#ArialMT-2b" x="350.195312"/>
      <use xlink:href="#ArialMT-20" x="408.59375"/>
      <use xlink:href="#ArialMT-61" x="436.376953"/>
      <use xlink:href="#ArialMT-75" x="491.992188"/>
      <use xlink:href="#ArialMT-67" x="547.607422"/>
      <use xlink:href="#ArialMT-6d" x="603.222656"/>
      <use xlink:href="#ArialMT-65" x="686.523438"/>
      <use xlink:href="#ArialMT-6e" x="742.138672"/>
      <use xlink:href="#ArialMT-74" x="797.753906"/>
      <use xlink:href="#ArialMT-65" x="825.537109"/>
      <use xlink:href="#ArialMT-64" x="881.152344"/>
      <use xlink:href="#ArialMT-20" x="936.767578"/>
      <use xlink:href="#ArialMT-64" x="964.550781"/>
      <use xlink:href="#ArialMT-61" x="1020.166016"/>
      <use xlink:href="#ArialMT-74" x="1075.78125"/>
      <use xlink:href="#ArialMT-61" x="1103.564453"/>
      <use xlink:href="#ArialMT-20" x="1159.179688"/>
      <use xlink:href="#ArialMT-73" x="1186.962891"/>
      <use xlink:href="#ArialMT-65" x="1236.962891"/>
      <use xlink:href="#ArialMT-74" x="1292.578125"/>
     </g>
    </g>
    <g id="patch_14">
     <path d="M 81.9 311.784844 
L 103.9 311.784844 
L 103.9 304.084844 
L 81.9 304.084844 
z
" style="fill: #288b74; stroke: #363636; stroke-linejoin: miter"/>
    </g>
    <g id="text_13">
     <!-- fully augmented data set -->
     <g style="fill: #262626" transform="translate(112.7 311.784844) scale(0.11 -0.11)">
      <defs>
       <path id="ArialMT-66" d="M 556 0 
L 556 2881 
L 59 2881 
L 59 3319 
L 556 3319 
L 556 3672 
Q 556 4006 616 4169 
Q 697 4388 901 4523 
Q 1106 4659 1475 4659 
Q 1713 4659 2000 4603 
L 1916 4113 
Q 1741 4144 1584 4144 
Q 1328 4144 1222 4034 
Q 1116 3925 1116 3625 
L 1116 3319 
L 1763 3319 
L 1763 2881 
L 1116 2881 
L 1116 0 
L 556 0 
z
" transform="scale(0.015625)"/>
       <path id="ArialMT-79" d="M 397 -1278 
L 334 -750 
Q 519 -800 656 -800 
Q 844 -800 956 -737 
Q 1069 -675 1141 -563 
Q 1194 -478 1313 -144 
Q 1328 -97 1363 -6 
L 103 3319 
L 709 3319 
L 1400 1397 
Q 1534 1031 1641 628 
Q 1738 1016 1872 1384 
L 2581 3319 
L 3144 3319 
L 1881 -56 
Q 1678 -603 1566 -809 
Q 1416 -1088 1222 -1217 
Q 1028 -1347 759 -1347 
Q 597 -1347 397 -1278 
z
" transform="scale(0.015625)"/>
      </defs>
      <use xlink:href="#ArialMT-66"/>
      <use xlink:href="#ArialMT-75" x="27.783203"/>
      <use xlink:href="#ArialMT-6c" x="83.398438"/>
      <use xlink:href="#ArialMT-6c" x="105.615234"/>
      <use xlink:href="#ArialMT-79" x="127.832031"/>
      <use xlink:href="#ArialMT-20" x="177.832031"/>
      <use xlink:href="#ArialMT-61" x="205.615234"/>
      <use xlink:href="#ArialMT-75" x="261.230469"/>
      <use xlink:href="#ArialMT-67" x="316.845703"/>
      <use xlink:href="#ArialMT-6d" x="372.460938"/>
      <use xlink:href="#ArialMT-65" x="455.761719"/>
      <use xlink:href="#ArialMT-6e" x="511.376953"/>
      <use xlink:href="#ArialMT-74" x="566.992188"/>
      <use xlink:href="#ArialMT-65" x="594.775391"/>
      <use xlink:href="#ArialMT-64" x="650.390625"/>
      <use xlink:href="#ArialMT-20" x="706.005859"/>
      <use xlink:href="#ArialMT-64" x="733.789062"/>
      <use xlink:href="#ArialMT-61" x="789.404297"/>
      <use xlink:href="#ArialMT-74" x="845.019531"/>
      <use xlink:href="#ArialMT-61" x="872.802734"/>
      <use xlink:href="#ArialMT-20" x="928.417969"/>
      <use xlink:href="#ArialMT-73" x="956.201172"/>
      <use xlink:href="#ArialMT-65" x="1006.201172"/>
      <use xlink:href="#ArialMT-74" x="1061.816406"/>
     </g>
    </g>
   </g>
  </g>
 </g>
 <defs>
  <clipPath id="pdca6f061ff">
   <rect x="72" y="51.84" width="446.4" height="272.16"/>
  </clipPath>
 </defs>
</svg>
